<svg viewBox="0 0 100 100" xmlns="http://www.w3.org/2000/svg" role="img" aria-label="墨子 Mozi">
  <defs>
    <radialGradient id="inni" cx="42%" cy="35%" r="80%">
      <stop offset="0%" stop-color="#D6473F"/>
      <stop offset="52%" stop-color="#C0392B"/>
      <stop offset="100%" stop-color="#8E2B22"/>
    </radialGradient>
  </defs>
  <!-- 朱砂印身 (印泥红) -->
  <path d="M20 6 L82 7 Q93 7 93 19 L94 80 Q94 92 80 92 L19 93 Q6 93 6 79 L6 20 Q7 6 20 6 Z" fill="url(#inni)"/>
  <!-- 「墨」字小篆 (朱地白文), 篆形取自崇羲篆體 (中研院 CC BY-ND 3.0 TW) -->
  <g fill="#ffffff" transform="translate(25.25,12.72) scale(0.073)">
    <g transform="translate(-173,805) scale(1,-1)">
      <path d="M542 745Q561 743 561 741L565 743H567Q568 743 573 739Q574 743 577 743Q578 739 581 739Q582 743 585 743H594V739Q598 739 602 741L606 739L610 741L620 739Q621 743 624 743Q635 739 635 736L645 739Q649 739 657 734Q658 739 661 739Q704 722 717 687Q715 683 715 681Q724 681 729 611Q721 549 705 549Q705 542 692 537Q684 518 674 518Q674 520 672 520Q656 511 604 504L600 506L596 504Q592 506 589 506L585 504Q581 506 579 506Q566 502 561 502H550L546 504Q542 497 542 493L544 489Q540 477 538 477Q538 442 550 427Q550 422 612 374Q672 335 694 316L750 287Q754 281 775 275Q778 266 787 257L785 252L791 248Q791 225 758 217Q740 217 721 240Q723 240 723 242Q649 280 589 322Q565 332 526 370L513 372Q511 361 484 353Q461 331 439 324Q439 321 420 310Q420 304 408 300Q408 294 377 277Q324 234 303 234Q303 225 266 197Q266 191 262 191Q260 191 260 193L256 191H252L245 195Q245 193 243 193Q235 206 233 230Q245 252 247 252Q262 265 307 289Q318 301 357 318Q421 364 423 368Q476 405 488 444Q488 449 493 460Q493 463 491 467L495 489Q493 502 491 502Q465 502 443 506Q441 506 441 504L427 506H420Q416 506 412 504Q409 506 404 506Q402 506 398 504Q361 514 355 530Q340 548 332 582Q332 595 328 613Q328 646 352 697Q352 717 388 726L390 722Q407 734 439 734Q439 732 441 732Q442 736 445 736L458 734Q461 736 466 736Q466 732 470 732H472Q472 739 476 739H478Q480 739 480 736Q494 739 499 743Q505 743 513 741Q539 743 542 745ZM550 687Q550 681 548 681Q550 677 550 675L548 671L552 662Q548 655 548 646V644Q554 636 554 631Q550 629 548 629L550 625Q550 621 546 611Q550 604 550 601Q550 598 548 594Q548 592 550 588Q549 557 546 557Q548 553 548 551L552 553Q554 553 554 551Q558 553 561 553L575 551Q579 553 583 553Q583 551 585 551Q586 555 589 555H604Q587 624 583 660V671L581 675Q585 675 585 679V689H581Q571 689 550 687ZM462 687Q460 677 458 677L460 666V664Q460 657 458 654L460 642V633Q460 629 458 625Q458 623 460 623Q458 609 455 609L458 605Q455 576 453 574Q453 572 455 572L453 561V557Q453 553 484 549Q488 551 491 551V603L488 623H491L488 627V642Q488 656 484 656L486 666V683Q486 687 482 687H474L464 685Q464 687 462 687ZM635 683 633 679V677Q637 647 637 644V638Q637 630 635 619Q643 607 643 601L641 596Q646 596 655 568H657Q667 568 678 592Q682 613 684 613L680 623L682 627Q682 681 647 681Q647 683 635 683ZM394 679Q379 644 379 607Q379 568 406 555V557L414 594L412 598Q414 605 416 605L414 609Q414 611 416 611L414 615Q418 630 418 633Q418 643 414 681ZM441 475Q460 456 460 446Q416 397 388 397Q362 381 313 362Q300 362 280 374Q277 374 274 386Q278 386 280 411L400 467Q416 473 441 475ZM639 473Q662 465 692 448L727 430Q758 414 758 401L760 376Q760 370 744 360H740Q709 360 622 417Q616 425 608 446Q608 455 620 458Q628 473 639 473ZM526 341Q531 331 542 320Q540 316 538 294Q540 286 540 277Q540 275 538 275Q540 271 540 269L538 265Q540 261 540 259Q536 252 536 248Q536 218 550 211Q615 159 692 112Q771 44 773 38Q773 32 777 32Q777 -3 750 -3Q738 -3 705 34Q702 34 661 73L544 145Q528 162 515 168Q504 154 488 147L412 88Q412 81 392 75Q387 60 367 53Q301 -9 293 -24L289 -22H287Q276 -32 266 -34Q252 -19 252 -11Q249 -3 249 3H252L249 7Q260 29 309 63Q323 78 350 96Q421 165 478 207L486 226Q482 271 482 281L486 283L484 287Q484 289 486 289L484 294V300Q484 304 486 308Q482 316 482 324Q493 337 497 337Q501 335 503 335Q503 339 526 341ZM439 273Q466 255 466 252V250Q466 234 420 199L344 135L317 125H313L301 139Q303 143 303 145Q299 145 297 158Q402 269 425 269Q426 269 439 273ZM608 271Q659 237 661 232Q675 228 699 207Q727 197 727 172L725 168Q727 164 727 160V156Q727 149 703 143Q692 143 629 193Q629 197 596 213Q577 232 577 236Q577 263 596 263Q596 267 608 271ZM513 121Q530 116 530 114L534 116H540Q543 116 546 110Q542 56 542 44L546 42H548Q589 42 602 38L606 40Q633 34 633 26Q631 26 631 24Q642 24 645 3Q627 -15 616 -15H594L581 -13Q578 -15 571 -15H569Q567 -15 567 -13L563 -15H558Q554 -15 550 -13L538 -17Q538 -22 540 -22L538 -46V-59L536 -63Q549 -69 561 -69Q564 -69 579 -65Q579 -67 581 -67L583 -63L596 -69Q596 -66 608 -63Q609 -67 612 -67H618Q623 -63 626 -63L637 -65V-59H643Q647 -59 647 -63L666 -59Q666 -61 668 -61Q668 -57 672 -57L678 -61Q679 -57 682 -57Q711 -74 711 -92V-94Q711 -120 670 -127Q629 -122 629 -118Q626 -118 626 -120L606 -118H602Q598 -119 598 -123Q575 -119 575 -116Q571 -118 552 -120L548 -118Q533 -123 532 -123V-120Q528 -123 526 -123Q519 -123 466 -125V-123Q461 -125 439 -127Q435 -125 433 -125Q429 -127 427 -127L423 -125Q419 -127 416 -127L412 -125Q400 -129 396 -129L385 -127Q381 -127 377 -129Q366 -127 359 -127H340Q335 -127 330 -96Q342 -69 355 -69Q362 -67 375 -67L385 -69Q389 -67 392 -67L404 -69Q411 -65 416 -65H423Q440 -65 460 -67L476 -63Q477 -67 480 -67L491 -65V-61Q491 -52 488 -44Q491 -37 491 -36Q491 -17 482 -17Q480 -17 480 -20Q473 -17 472 -17Q445 -17 427 -22Q425 -22 425 -20L414 -22H406Q396 -18 390 5Q398 27 420 40Q423 40 427 38L468 42L472 40Q483 44 488 51V77Q488 111 513 121Z" />
    </g>
  </g>
</svg>
